<?xml version="1.0" encoding="utf-8"?>
<!-- Generator: Adobe Illustrator 16.0.0, SVG Export Plug-In . SVG Version: 6.00 Build 0)  -->
<!DOCTYPE svg PUBLIC "-//W3C//DTD SVG 1.1//EN" "http://www.w3.org/Graphics/SVG/1.1/DTD/svg11.dtd">
<svg version="1.1" id="Layer_1" xmlns="http://www.w3.org/2000/svg" xmlns:xlink="http://www.w3.org/1999/xlink" x="0px" y="0px"
	 width="514px" height="485px" viewBox="0 0 514 485" enable-background="new 0 0 514 485" xml:space="preserve">
<rect stroke="#000000" stroke-miterlimit="10" width="514" height="485"/>
<path fill="#FFFFFF" d="M391,72.5H124c-27.338,0-49.5,19.251-49.5,43s22.162,43,49.5,43h267c27.338,0,49.5-19.251,49.5-43
	S418.338,72.5,391,72.5z"/>
<path fill="#FFFFFF" d="M391,326.5H124c-27.338,0-49.5,19.252-49.5,43s22.162,43,49.5,43h267c27.338,0,49.5-19.252,49.5-43
	S418.338,326.5,391,326.5z"/>
<path fill="#FFFFFF" d="M391,199.5H124c-27.338,0-49.5,19.251-49.5,43c0,23.748,22.162,43,49.5,43h267c27.338,0,49.5-19.252,49.5-43
	C440.5,218.751,418.338,199.5,391,199.5z"/>
</svg>
